<?xml version="1.0" encoding="UTF-8" standalone="no"?>
<svg xmlns:dc="http://purl.org/dc/elements/1.1/" xmlns:cc="http://creativecommons.org/ns#" xmlns:rdf="http://www.w3.org/1999/02/22-rdf-syntax-ns#" xmlns:svg="http://www.w3.org/2000/svg" xmlns="http://www.w3.org/2000/svg" xmlns:sodipodi="http://sodipodi.sourceforge.net/DTD/sodipodi-0.dtd" xmlns:inkscape="http://www.inkscape.org/namespaces/inkscape" id="Ebene_2" data-name="Ebene 2" viewBox="0 0 156.7 73.536004" version="1.1" sodipodi:docname="logo_neg_new.svg" width="156.7" height="73.536003" inkscape:version="0.92.2 (5c3e80d, 2017-08-06)">
  <metadata id="metadata74">
    <rdf:RDF>
      <cc:Work rdf:about="">
        <dc:format>image/svg+xml</dc:format>
        <dc:type rdf:resource="http://purl.org/dc/dcmitype/StillImage"/>
        <dc:title/>
      </cc:Work>
    </rdf:RDF>
  </metadata>
  <sodipodi:namedview pagecolor="#ffffff" bordercolor="#666666" borderopacity="1" objecttolerance="10" gridtolerance="10" guidetolerance="10" inkscape:pageopacity="0" inkscape:pageshadow="2" inkscape:window-width="1920" inkscape:window-height="1017" id="namedview72" showgrid="false" inkscape:zoom="2.4476773" inkscape:cx="170.8098" inkscape:cy="-33.355021" inkscape:window-x="1912" inkscape:window-y="-8" inkscape:window-maximized="1" inkscape:current-layer="Ebene_2"/>
  <defs id="defs4">
    <style id="style2">.cls-1,.cls-3{fill:#8a9298;}.cls-1,.cls-2{fill-rule:evenodd;}.cls-2,.cls-5{fill:#f7941d;}.cls-4{fill:#c7cfd4;}</style>
  </defs>
  <g id="Ebene_3" data-name="Ebene 3" transform="translate(0,-4.2146935e-4)">
    <polygon class="cls-1" points="60.38,23.26 60.38,20.65 53.24,21.99 53.24,19.69 60.38,17.98 60.38,9.99 53.24,12.72 53.24,10.71 60.38,7.66 61.55,7.66 64.09,6.53 64.11,6.12 78.33,0 78.33,3.14 64.29,8.48 64.29,17.05 78.33,13.69 78.33,17.27 64.29,19.91 64.29,22.71 78.33,20.65 78.33,24.27 64.29,25.56 64.29,28.36 78.33,27.72 78.33,30.84 52.62,30.84 52.62,28.89 60.38,28.56 60.38,25.9 53.24,26.59 53.24,24.27 " id="polygon8" style="fill:#8a9298;fill-rule:evenodd"/>
  </g>
  <polygon class="cls-2" points="94.26,12.76 94.27,9.65 79.06,6.59 79.09,10.25 " id="polygon11" style="fill:#f7941d;fill-rule:evenodd" transform="translate(0,-4.2146935e-4)"/>
  <polygon class="cls-1" points="94.27,22.02 94.27,25.11 79.1,24.3 79.09,20.64 " id="polygon13" style="fill:#8a9298;fill-rule:evenodd" transform="translate(0,-4.2146935e-4)"/>
  <polygon class="cls-1" points="94.81,28.02 94.81,30.84 79.1,30.81 79.07,27.72 " id="polygon15" style="fill:#8a9298;fill-rule:evenodd" transform="translate(0,-4.2146935e-4)"/>
  <polygon class="cls-1" points="95.79,11.24 103.42,13.2 103.42,30.82 95.79,30.84 " id="polygon17" style="fill:#8a9298;fill-rule:evenodd" transform="translate(0,-4.2146935e-4)"/>
  <polygon class="cls-1" points="94.27,15.83 94.27,18.91 79.09,17.28 79.06,13.67 " id="polygon19" style="fill:#8a9298;fill-rule:evenodd" transform="translate(0,-4.2146935e-4)"/>
  <polygon class="cls-1" points="94.27,4.3 94.27,6.55 79.07,3.17 79.07,0.06 " id="polygon21" style="fill:#8a9298;fill-rule:evenodd" transform="translate(0,-4.2146935e-4)"/>
  <polygon class="cls-2" points="78.33,6.55 78.33,10.21 64.29,14.23 64.29,11.33 " id="polygon23" style="fill:#f7941d;fill-rule:evenodd" transform="translate(0,-4.2146935e-4)"/>
  <polygon class="cls-2" points="60.37,12.63 60.38,15.34 53.24,17.39 53.24,15.02 " id="polygon25" style="fill:#f7941d;fill-rule:evenodd" transform="translate(0,-4.2146935e-4)"/>
  <rect class="cls-3" x="45.490002" y="33.299576" width="65.160004" height="1.66" id="rect27" style="fill:#8a9298"/>
  <text x="-3.29" y="-7.9239979" id="text29"/>
  <path class="cls-4" d="m 16.57,60.509578 h -2.35 l -3.62,-12.44 -3.6,12.47 H 4.65 L 0,42.719578 h 2.85 l 3.1,12.72 3.57,-12.72 h 2.19 l 3.57,12.72 3.1,-12.72 h 2.85 z" id="path31" inkscape:connector-curvature="0" style="fill:#c7cfd4"/>
  <path class="cls-4" d="m 36.52,58.759578 a 6.4,6.4 0 0 1 -4.7,1.9 6.33,6.33 0 0 1 -4.67,-1.9 c -1.75,-1.75 -1.73,-3.72 -1.73,-7.14 0,-3.42 0,-5.4 1.73,-7.15 a 6.33,6.33 0 0 1 4.67,-1.9 6.4,6.4 0 0 1 4.7,1.9 c 1.75,1.75 1.7,3.72 1.7,7.15 0,3.43 0.05,5.39 -1.7,7.14 z m -2.05,-12.69 a 3.74,3.74 0 0 0 -5.3,0 c -0.87,0.95 -1.05,1.95 -1.05,5.53 0,3.58 0.18,4.57 1.05,5.52 a 3.74,3.74 0 0 0 5.3,0 c 0.88,-1 1.05,-2 1.05,-5.52 0,-3.52 -0.17,-4.53 -1.05,-5.53 z" id="path33" inkscape:connector-curvature="0" style="fill:#c7cfd4"/>
  <path class="cls-4" d="m 54.64,60.509578 v -7.77 h -7.22 v 7.77 h -2.71 v -17.79 h 2.7 v 7.6 h 7.22 v -7.6 h 2.7 v 17.79 z" id="path35" inkscape:connector-curvature="0" style="fill:#c7cfd4"/>
  <path class="cls-4" d="m 75.42,60.509578 -8.22,-12.52 v 12.52 h -2.7 v -17.79 h 2.47 l 8.22,12.49 v -12.49 h 2.7 v 17.79 z" id="path37" inkscape:connector-curvature="0" style="fill:#c7cfd4"/>
  <path class="cls-5" d="m 99.57,60.509578 h -2.35 l -3.62,-12.44 -3.6,12.47 h -2.35 l -4.65,-17.82 h 2.85 l 3.1,12.72 3.57,-12.72 h 2.19 l 3.58,12.72 3.1,-12.72 h 2.85 z" id="path39" inkscape:connector-curvature="0" style="fill:#f7941d"/>
  <path class="cls-5" d="m 109.32,60.509578 v -17.79 h 11.39 v 2.42 h -8.67 v 5.2 h 7.4 v 2.4 h -7.4 v 5.33 h 8.67 v 2.42 z" id="path41" inkscape:connector-curvature="0" style="fill:#f7941d"/>
  <path class="cls-5" d="m 136.71,60.509578 -3.74,-7.44 h -3.37 v 7.49 h -2.7 v -17.84 h 6.9 c 3.37,0 5.52,2.17 5.52,5.2 a 4.67,4.67 0 0 1 -3.55,4.72 l 4.1,7.87 z m -3.12,-15.37 h -4 v 5.58 h 4 a 2.8,2.8 0 1 0 0,-5.58 z" id="path43" inkscape:connector-curvature="0" style="fill:#f7941d"/>
  <path class="cls-5" d="m 151.8,45.139578 v 15.37 h -2.7 v -15.37 h -4.9 v -2.42 h 12.51 v 2.42 z" id="path45" inkscape:connector-curvature="0" style="fill:#f7941d"/>
  <path class="cls-4" d="m 48.77,72.929578 a 2.1,2.1 0 0 1 -1.52,0.55 h -2 v -6 h 2 a 2.1,2.1 0 0 1 1.52,0.55 3.17,3.17 0 0 1 0.59,2.37 3.51,3.51 0 0 1 -0.59,2.53 z m -0.45,-4.42 a 1.54,1.54 0 0 0 -1.17,-0.44 h -1.31 v 4.84 h 1.31 a 1.54,1.54 0 0 0 1.17,-0.44 3.22,3.22 0 0 0 0.4,-2.05 2.8,2.8 0 0 0 -0.4,-1.91 z" id="path47" inkscape:connector-curvature="0" style="fill:#c7cfd4"/>
  <path class="cls-4" d="m 51.71,73.479578 v -6 h 3.7 v 0.59 h -3.07 v 2.11 h 2.62 v 0.57 h -2.62 v 2.16 h 3.07 v 0.57 z" id="path49" inkscape:connector-curvature="0" style="fill:#c7cfd4"/>
  <path class="cls-4" d="m 59.58,73.529578 a 2,2 0 0 1 -2.09,-2 v -4 h 0.64 v 4 a 1.45,1.45 0 1 0 2.9,0 v -4 h 0.68 v 4 a 2,2 0 0 1 -2.13,2 z" id="path51" inkscape:connector-curvature="0" style="fill:#c7cfd4"/>
  <path class="cls-4" d="m 65.91,68.069578 v 5.41 h -0.64 v -5.41 h -1.73 v -0.57 h 4.1 v 0.57 z" id="path53" inkscape:connector-curvature="0" style="fill:#c7cfd4"/>
  <path class="cls-4" d="m 71.14,73.529578 a 2.61,2.61 0 0 1 -2.06,-0.79 l 0.44,-0.43 a 2.08,2.08 0 0 0 1.63,0.65 c 0.88,0 1.41,-0.41 1.41,-1.11 a 1,1 0 0 0 -0.28,-0.75 1.3,1.3 0 0 0 -0.78,-0.28 l -0.7,-0.11 a 2.19,2.19 0 0 1 -1.1,-0.46 1.4,1.4 0 0 1 -0.46,-1.11 1.7,1.7 0 0 1 1.92,-1.69 2.39,2.39 0 0 1 1.78,0.65 l -0.41,0.41 a 1.9,1.9 0 0 0 -1.39,-0.51 1.12,1.12 0 0 0 -1.27,1.07 0.87,0.87 0 0 0 0.27,0.69 1.75,1.75 0 0 0 0.81,0.33 l 0.66,0.1 a 1.88,1.88 0 0 1 1.09,0.42 1.5,1.5 0 0 1 0.5,1.19 c 0,1.09 -0.82,1.73 -2.06,1.73 z" id="path55" inkscape:connector-curvature="0" style="fill:#c7cfd4"/>
  <path class="cls-4" d="m 77.24,73.529578 a 2.11,2.11 0 0 1 -1.53,-0.62 c -0.56,-0.56 -0.56,-1.15 -0.56,-2.42 0,-1.27 0,-1.86 0.56,-2.42 a 2.15,2.15 0 0 1 1.53,-0.62 2,2 0 0 1 2.08,1.78 h -0.61 a 1.41,1.41 0 0 0 -1.47,-1.16 1.43,1.43 0 0 0 -1,0.42 c -0.38,0.39 -0.42,0.8 -0.42,2 0,1.2 0,1.66 0.42,2 a 1.47,1.47 0 0 0 2.47,-0.74 h 0.64 a 2,2 0 0 1 -2.11,1.78 z" id="path57" inkscape:connector-curvature="0" style="fill:#c7cfd4"/>
  <path class="cls-4" d="m 85.05,73.479578 v -2.73 h -2.84 v 2.73 h -0.64 v -6 h 0.64 v 2.68 h 2.84 v -2.66 h 0.66 v 6 z" id="path59" inkscape:connector-curvature="0" style="fill:#c7cfd4"/>
  <path class="cls-4" d="m 88.25,73.479578 v -6 h 0.64 v 5.41 h 3.06 v 0.57 z" id="path61" inkscape:connector-curvature="0" style="fill:#c7cfd4"/>
  <path class="cls-4" d="m 97.4,73.479578 -0.48,-1.35 H 94.3 l -0.48,1.35 h -0.68 l 2.2,-6 h 0.54 l 2.2,6 z m -1.78,-5.07 -1.13,3.16 h 2.22 z" id="path63" inkscape:connector-curvature="0" style="fill:#c7cfd4"/>
  <path class="cls-4" d="m 103.71,73.479578 -3.18,-4.8 v 4.8 h -0.64 v -6 h 0.6 l 3.22,4.8 v -4.78 h 0.64 v 6 z" id="path65" inkscape:connector-curvature="0" style="fill:#c7cfd4"/>
  <path class="cls-4" d="m 110.43,72.929578 a 2.09,2.09 0 0 1 -1.51,0.55 h -2 v -6 h 2 a 2.09,2.09 0 0 1 1.51,0.55 3.17,3.17 0 0 1 0.59,2.37 3.51,3.51 0 0 1 -0.59,2.53 z m -0.44,-4.42 a 1.57,1.57 0 0 0 -1.18,-0.44 h -1.3 v 4.84 h 1.3 a 1.57,1.57 0 0 0 1.18,-0.44 c 0.41,-0.42 0.39,-1.32 0.39,-2.05 a 2.8,2.8 0 0 0 -0.39,-1.91 z" id="path67" inkscape:connector-curvature="0" style="fill:#c7cfd4"/>
  <text x="-3.29" y="-7.9239979" id="text69"/>
</svg>